<?xml version="1.0" standalone="no"?>
<!DOCTYPE svg PUBLIC "-//W3C//DTD SVG 20010904//EN"
 "http://www.w3.org/TR/2001/REC-SVG-20010904/DTD/svg10.dtd">
<svg version="1.0" xmlns="http://www.w3.org/2000/svg"
 width="512.000000pt" height="512.000000pt" viewBox="0 0 512.000000 512.000000"
 preserveAspectRatio="xMidYMid meet">

<g transform="translate(0.000000,512.000000) scale(0.100000,-0.100000)"
stroke="none">
<path d="M2905 4845 c-180 -39 -371 -161 -520 -332 -235 -268 -424 -692 -515
-1156 -11 -57 -13 -59 -38 -52 -76 21 -132 24 -417 24 -231 1 -327 -3 -377
-14 -363 -77 -658 -520 -755 -1137 -23 -144 -26 -603 -4 -743 91 -605 360
-1043 705 -1151 l81 -25 370 3 c355 3 372 4 429 25 33 13 84 37 115 55 78 47
208 179 271 275 l53 83 36 -43 c151 -179 320 -303 496 -364 l80 -27 383 -4
c361 -3 387 -2 465 17 172 44 304 125 459 282 325 330 544 880 620 1554 18
161 18 729 0 890 -73 653 -291 1212 -599 1535 -107 113 -192 178 -308 235
-161 80 -195 85 -609 84 -259 0 -378 -4 -421 -14z m290 -255 c432 -111 788
-774 881 -1642 22 -204 22 -573 0 -776 -93 -870 -447 -1529 -882 -1643 -243
-63 -505 71 -703 360 l-61 89 15 43 c78 220 122 565 111 864 -18 510 -163 950
-395 1197 -37 40 -61 74 -61 88 0 13 12 79 26 149 157 763 538 1283 945 1290
25 1 81 -8 124 -19z m754 -125 l44 -35 -84 1 c-83 0 -84 1 -112 35 l-29 34 69
0 c63 0 71 -3 112 -35z m209 -228 c23 -34 42 -65 42 -70 0 -4 -45 -7 -99 -7
l-99 0 -23 38 c-12 20 -31 52 -41 70 l-20 32 99 0 98 0 43 -63z m178 -304 l43
-93 -118 0 -119 0 -36 90 c-20 50 -36 93 -36 95 0 3 50 4 112 3 l112 -3 42
-92z m122 -332 c18 -61 32 -115 32 -120 0 -7 -42 -11 -120 -11 l-119 0 -11 43
c-6 23 -20 72 -31 108 -10 36 -19 71 -19 78 0 7 36 11 118 11 l119 0 31 -109z
m77 -283 c2 -13 12 -66 20 -118 8 -52 18 -105 20 -118 l6 -23 -128 3 -128 3
-3 25 c-5 49 -34 223 -39 236 -4 11 19 14 121 14 122 0 126 -1 131 -22z
m-3233 -286 c83 -40 194 -155 260 -269 210 -358 284 -935 183 -1438 -78 -387
-249 -682 -453 -778 -89 -43 -188 -45 -272 -6 -372 173 -596 949 -475 1644 79
456 278 796 508 871 72 23 172 14 249 -24z m498 15 l35 -15 -76 -1 c-65 -1
-79 2 -95 20 l-19 22 60 -5 c33 -3 76 -12 95 -21z m2794 -159 c3 -24 8 -94 11
-155 l7 -113 -131 0 -131 0 0 73 c0 39 -3 109 -7 155 l-6 82 126 0 126 0 5
-42z m-2590 -13 l16 -25 -109 0 c-99 0 -111 2 -121 19 -5 11 -10 22 -10 25 0
3 47 6 104 6 100 0 104 -1 120 -25z m136 -217 c0 -5 -55 -8 -123 -8 l-124 0
-10 35 -11 34 117 3 116 3 17 -30 c9 -16 17 -33 18 -37z m59 -160 c5 -13 12
-38 16 -55 l7 -33 -124 0 -124 0 -12 45 c-7 25 -12 50 -12 55 0 6 48 10 120
10 116 0 121 -1 129 -22z m2401 -92 c0 -51 -3 -121 -6 -155 l-7 -61 -129 0
-130 0 6 38 c3 20 8 90 12 155 l6 117 124 0 124 0 0 -94z m-2331 -183 c18 -89
26 -83 -113 -83 -139 0 -130 -5 -141 83 l-7 57 124 0 125 0 12 -57z m2296
-215 c-3 -29 -13 -92 -22 -140 l-15 -88 -124 0 c-145 0 -133 -17 -104 150 11
63 20 118 20 123 0 4 57 7 126 7 l126 0 -7 -52z m-2275 -32 c0 -18 3 -54 6
-80 l7 -46 -127 0 c-116 0 -126 1 -126 19 0 10 -3 46 -6 80 l-7 61 127 0 126
0 0 -34z m10 -310 c0 -100 6 -96 -136 -96 l-124 0 0 43 c0 23 3 59 6 80 l7 37
123 0 124 0 0 -64z m2190 -27 c0 -5 -14 -59 -32 -120 l-31 -109 -119 0 c-82 0
-118 4 -118 11 0 7 9 42 19 78 11 36 25 85 31 109 l11 42 119 0 c78 0 120 -4
120 -11z m-2213 -216 c-3 -10 -8 -39 -12 -65 l-6 -48 -128 0 -127 0 10 65 9
65 129 0 c118 0 129 -1 125 -17z m2093 -149 c0 -3 -19 -46 -41 -95 l-42 -89
-114 0 -113 0 18 38 c11 20 25 55 32 77 25 78 18 75 145 75 63 0 115 -3 115
-6z m-2150 -114 c0 -11 -7 -36 -14 -55 l-15 -35 -121 0 -122 0 7 33 c18 81 11
77 145 77 114 0 120 -1 120 -20z m1990 -206 c0 -4 -20 -35 -46 -70 l-45 -64
-95 0 c-51 0 -94 2 -94 5 0 3 17 35 37 70 l37 65 103 0 c57 0 103 -3 103 -6z
m-2085 -50 c-8 -20 -15 -38 -15 -40 0 -2 -54 -4 -120 -4 -66 0 -120 2 -120 4
0 2 7 20 15 40 l15 36 120 0 120 0 -15 -36z m-117 -194 c-11 -18 -24 -20 -115
-20 -57 0 -103 2 -103 4 0 32 14 36 121 36 107 0 109 0 97 -20z m1941 -55
c-41 -32 -49 -35 -112 -35 l-69 0 29 34 c28 34 29 35 112 35 l84 1 -44 -35z
m-2144 -115 c-41 -20 -115 -35 -135 -28 -6 2 -5 11 5 26 14 20 24 22 93 21
l77 -1 -40 -18z"/>
<path d="M3032 3634 c-21 -14 -22 -23 -22 -128 l0 -113 -49 -7 c-148 -20 -257
-187 -269 -412 -12 -258 98 -453 271 -482 l42 -8 3 -317 2 -317 -140 0 c-138
0 -141 -1 -166 -26 -20 -19 -24 -31 -19 -52 3 -15 11 -31 16 -37 6 -5 76 -12
157 -15 l147 -5 3 -105 c2 -93 5 -107 23 -122 30 -26 64 -22 88 8 18 23 21 41
21 130 l0 104 28 0 c43 0 124 43 164 88 83 92 122 212 121 372 -1 163 -54 301
-147 383 -33 29 -98 57 -133 57 l-33 0 0 315 0 315 138 0 c132 0 140 1 160 23
27 28 28 68 4 90 -15 14 -42 17 -160 17 l-142 0 0 104 c0 89 -3 107 -21 130
-23 29 -54 33 -87 10z m-22 -689 c0 -310 -1 -325 -19 -325 -37 0 -86 45 -119
111 -62 121 -66 283 -11 408 30 69 92 128 137 130 9 1 12 -70 12 -324z m225
-499 c77 -80 113 -245 81 -379 -29 -124 -94 -217 -152 -217 l-24 0 0 320 0
320 27 0 c18 0 39 -13 68 -44z"/>
<path d="M1100 2610 c-18 -18 -20 -33 -20 -135 l0 -114 -27 -15 c-81 -41 -155
-158 -195 -303 -29 -109 -32 -361 -4 -478 35 -152 103 -267 188 -321 l38 -24
0 -114 c0 -97 3 -115 18 -129 26 -24 67 -21 92 5 18 19 20 35 20 134 l0 112
35 22 c75 47 150 173 176 298 12 56 11 63 -6 82 -36 40 -98 19 -111 -38 -24
-109 -79 -214 -125 -238 -25 -13 -36 -13 -59 -4 -48 20 -101 113 -131 230 -19
74 -19 345 0 420 32 130 103 240 154 240 14 0 39 -12 56 -26 36 -30 87 -132
97 -192 9 -56 38 -92 73 -92 57 0 73 49 47 145 -31 119 -91 215 -161 260 l-45
28 0 118 c0 110 -1 119 -22 133 -31 22 -64 20 -88 -4z"/>
</g>
</svg>
